<svg width="55" height="55" viewBox="0 0 55 55" fill="none" xmlns="http://www.w3.org/2000/svg">
<rect width="55" height="55" rx="27.5" fill="#E3E2D2"/>
<path d="M22.3281 34H20.5508V21.6953H20.4727L17.0352 23.9805V22.2031L20.5508 19.8594H22.3281V34ZM27.3086 32.125C27.0807 32.125 26.8691 32.0697 26.6738 31.959C26.485 31.8418 26.332 31.6855 26.2148 31.4902C26.1042 31.2949 26.0521 31.0833 26.0586 30.8555C26.0521 30.6341 26.1042 30.429 26.2148 30.2402C26.332 30.0449 26.485 29.8919 26.6738 29.7812C26.8691 29.6641 27.0807 29.6055 27.3086 29.6055C27.5299 29.6055 27.735 29.6641 27.9238 29.7812C28.1191 29.8919 28.2721 30.0449 28.3828 30.2402C28.5 30.429 28.5586 30.6341 28.5586 30.8555C28.5586 31.0833 28.5 31.2949 28.3828 31.4902C28.2721 31.6855 28.1191 31.8418 27.9238 31.959C27.735 32.0697 27.5299 32.125 27.3086 32.125ZM27.3086 24.2734C27.0807 24.2734 26.8691 24.2181 26.6738 24.1074C26.485 23.9902 26.332 23.834 26.2148 23.6387C26.1042 23.4434 26.0521 23.2318 26.0586 23.0039C26.0521 22.7826 26.1042 22.5775 26.2148 22.3887C26.332 22.1934 26.485 22.0404 26.6738 21.9297C26.8691 21.8125 27.0807 21.7539 27.3086 21.7539C27.5299 21.7539 27.735 21.8125 27.9238 21.9297C28.1191 22.0404 28.2721 22.1934 28.3828 22.3887C28.5 22.5775 28.5586 22.7826 28.5586 23.0039C28.5586 23.2318 28.5 23.4434 28.3828 23.6387C28.2721 23.834 28.1191 23.9902 27.9238 24.1074C27.735 24.2181 27.5299 24.2734 27.3086 24.2734ZM36.1758 34H34.3984V21.6953H34.3203L30.8828 23.9805V22.2031L34.3984 19.8594H36.1758V34Z" fill="black"/>
</svg>
