<svg width="24" height="24" viewBox="0 0 24 24" fill="none" xmlns="http://www.w3.org/2000/svg">
<g clip-path="url(#clip0_1722_51)">
<path d="M15.334 17.3335C15.334 17.5103 15.2637 17.6799 15.1387 17.8049C15.0137 17.9299 14.8441 18.0002 14.6673 18.0002H5.33398C5.18732 18.0002 5.04732 18.1335 4.92732 18.2202L2.66732 20.0002V9.3335C2.66732 9.15669 2.73756 8.98712 2.86258 8.86209C2.9876 8.73707 3.15717 8.66683 3.33398 8.66683H5.90732V7.3335H3.33398C2.80355 7.3335 2.29484 7.54421 1.91977 7.91928C1.5447 8.29436 1.33398 8.80306 1.33398 9.3335V21.3335C1.33498 21.4573 1.37043 21.5784 1.43637 21.6832C1.50231 21.788 1.59613 21.8724 1.70732 21.9268C1.81444 21.9755 1.93254 21.995 2.04963 21.9833C2.16673 21.9716 2.27863 21.9291 2.37398 21.8602L5.80732 19.3335H14.7673C15.02 19.341 15.2715 19.2965 15.5063 19.2028C15.7411 19.1091 15.9541 18.9682 16.1322 18.7889C16.3104 18.6095 16.4497 18.3955 16.5418 18.16C16.6338 17.9246 16.6766 17.6728 16.6673 17.4202V16.6668H15.334V17.3335Z" fill="#778594"/>
<path d="M20.6673 2.6665H9.33398C8.80355 2.6665 8.29484 2.87722 7.91977 3.25229C7.5447 3.62736 7.33398 4.13607 7.33398 4.6665V12.6665C7.33398 13.1969 7.5447 13.7056 7.91977 14.0807C8.29484 14.4558 8.80355 14.6665 9.33398 14.6665H18.3673L21.554 17.1398C21.6487 17.2099 21.7603 17.2536 21.8774 17.2664C21.9945 17.2793 22.113 17.2609 22.2207 17.2132C22.3341 17.1591 22.43 17.0741 22.4972 16.968C22.5644 16.8618 22.6003 16.7388 22.6007 16.6132V4.6665C22.6009 4.14742 22.3994 3.64856 22.0386 3.27535C21.6779 2.90213 21.1861 2.68381 20.6673 2.6665ZM21.334 15.2932L19.0007 13.4732C18.8843 13.3829 18.7413 13.3336 18.594 13.3332H9.33398C9.15717 13.3332 8.9876 13.2629 8.86258 13.1379C8.73756 13.0129 8.66732 12.8433 8.66732 12.6665V4.6665C8.66732 4.48969 8.73756 4.32012 8.86258 4.1951C8.9876 4.07008 9.15717 3.99984 9.33398 3.99984H20.6673C20.8455 4.01601 21.0117 4.09678 21.1345 4.22694C21.2572 4.3571 21.3282 4.52766 21.334 4.7065V15.2932Z" fill="#778594"/>
</g>
<defs>
<clipPath id="clip0_1722_51">
<rect width="24" height="24" fill="white"/>
</clipPath>
</defs>
</svg>
