<svg width="40" height="41" viewBox="0 0 40 41" fill="none" xmlns="http://www.w3.org/2000/svg">
<rect width="40" height="40.3673" rx="20" fill="#ADB8C4"/>
<path fill-rule="evenodd" clip-rule="evenodd" d="M16.3266 11C14.8652 11 13.4637 11.5805 12.4303 12.6139C11.3969 13.6473 10.8164 15.0488 10.8164 16.5102V23.8571C10.8164 25.3185 11.3969 26.7201 12.4303 27.7534C13.4637 28.7868 14.8652 29.3673 16.3266 29.3673H23.6735C25.1349 29.3673 26.5365 28.7868 27.5699 27.7534C28.6032 26.7201 29.1838 25.3185 29.1838 23.8571V16.5102C29.1838 15.0488 28.6032 13.6473 27.5699 12.6139C26.5365 11.5805 25.1349 11 23.6735 11H16.3266ZM12.0409 16.5102C12.0409 14.1429 13.9593 12.2245 16.3266 12.2245H23.6735C26.0409 12.2245 27.9593 14.1429 27.9593 16.5102V23.8571C27.9593 26.2245 26.0409 28.1429 23.6735 28.1429H16.3266C15.19 28.1429 14.0999 27.6913 13.2962 26.8876C12.4924 26.0839 12.0409 24.9938 12.0409 23.8571V16.5102ZM26.1225 15.4898C26.1225 15.7604 26.015 16.02 25.8237 16.2113C25.6323 16.4027 25.3728 16.5102 25.1021 16.5102C24.8315 16.5102 24.5719 16.4027 24.3806 16.2113C24.1892 16.02 24.0817 15.7604 24.0817 15.4898C24.0817 15.2192 24.1892 14.9596 24.3806 14.7683C24.5719 14.5769 24.8315 14.4694 25.1021 14.4694C25.3728 14.4694 25.6323 14.5769 25.8237 14.7683C26.015 14.9596 26.1225 15.2192 26.1225 15.4898ZM20.0001 16.7143C19.5445 16.7143 19.0933 16.804 18.6724 16.9784C18.2515 17.1527 17.869 17.4083 17.5469 17.7304C17.2247 18.0526 16.9691 18.4351 16.7948 18.856C16.6204 19.2769 16.5307 19.7281 16.5307 20.1837C16.5307 20.6393 16.6204 21.0904 16.7948 21.5114C16.9691 21.9323 17.2247 22.3147 17.5469 22.6369C17.869 22.9591 18.2515 23.2146 18.6724 23.389C19.0933 23.5633 19.5445 23.6531 20.0001 23.6531C20.9202 23.6531 21.8027 23.2875 22.4533 22.6369C23.1039 21.9863 23.4695 21.1038 23.4695 20.1837C23.4695 19.2635 23.1039 18.3811 22.4533 17.7304C21.8027 17.0798 20.9202 16.7143 20.0001 16.7143ZM15.3062 20.1837C15.3062 18.9388 15.8007 17.7449 16.681 16.8646C17.5613 15.9843 18.7552 15.4898 20.0001 15.4898C21.245 15.4898 22.4389 15.9843 23.3192 16.8646C24.1994 17.7449 24.694 18.9388 24.694 20.1837C24.694 21.4286 24.1994 22.6225 23.3192 23.5027C22.4389 24.383 21.245 24.8776 20.0001 24.8776C18.7552 24.8776 17.5613 24.383 16.681 23.5027C15.8007 22.6225 15.3062 21.4286 15.3062 20.1837Z" fill="white"/>
</svg>
