<svg width="40" height="41" viewBox="0 0 40 41" fill="none" xmlns="http://www.w3.org/2000/svg">
<rect y="0.183594" width="40" height="40" rx="20" fill="#ADB8C4"/>
<path d="M20 10.1836C26.0767 10.1836 31 14.0104 31 18.7289C31 23.4475 26.0767 27.2742 20 27.2742C19.3316 27.2742 18.6785 27.2291 18.0444 27.1388C17.4104 27.579 13.7438 30.1152 13.3962 30.1641C13.3962 30.1641 13.2549 30.2168 13.1326 30.149C13.0104 30.0813 13.0333 29.8969 13.0333 29.8969C13.0715 29.6486 13.9882 26.5405 14.1562 25.9648C11.0587 24.4559 9 21.7768 9 18.7252C9 14.0066 13.9233 10.1836 20 10.1836ZM12.2924 16.174C11.9486 16.174 11.6698 16.4487 11.6698 16.7873C11.6698 17.126 11.9486 17.4006 12.2924 17.4006H13.2816V21.1145C13.2816 21.4457 13.5681 21.7128 13.9156 21.7128C14.2632 21.7128 14.5497 21.4457 14.5497 21.1145V17.4006H15.5389C15.8826 17.4006 16.1615 17.126 16.1615 16.7873C16.1615 16.4487 15.8826 16.174 15.5389 16.174H12.2885H12.2924ZM17.6701 16.174C17.2576 16.1815 16.933 16.4901 16.826 16.7911L15.3097 20.727C15.1187 21.3177 15.2868 21.536 15.4587 21.615C15.5809 21.6714 15.7222 21.7015 15.8635 21.7015C16.1271 21.7015 16.3295 21.5962 16.3906 21.4268L16.7038 20.6141H18.6403L18.9535 21.4231C19.0146 21.5924 19.217 21.6978 19.4806 21.6978C19.6219 21.6978 19.7594 21.6677 19.8854 21.6112C20.0611 21.5322 20.2292 21.314 20.0344 20.7232L18.5181 16.7911C18.4111 16.4901 18.0865 16.1815 17.6701 16.174ZM24.5795 16.174C24.2281 16.174 23.9455 16.4562 23.9455 16.7986V21.0769C23.9455 21.4231 24.2319 21.7015 24.5795 21.7015C24.9271 21.7015 25.2135 21.4193 25.2135 21.0769V19.7148L25.4351 19.4965L26.9208 21.4381C27.0431 21.5962 27.2264 21.6865 27.4288 21.6865C27.5663 21.6865 27.7 21.6451 27.8108 21.5623C27.9444 21.4607 28.0323 21.314 28.0552 21.1484C28.0781 20.9828 28.0361 20.8173 27.933 20.6856L26.3708 18.6461L27.8184 17.2238C27.9177 17.126 27.9674 16.9905 27.9597 16.8438C27.9521 16.697 27.8833 16.5578 27.7726 16.4487C27.6542 16.332 27.4937 16.2643 27.3372 16.2643C27.1997 16.2643 27.0774 16.3132 26.9858 16.4035L25.2174 18.1494V16.8061C25.2174 16.4599 24.9309 16.1815 24.5833 16.1815L24.5795 16.174ZM21.0924 16.174C20.7372 16.174 20.4469 16.4562 20.4469 16.7986V21.043C20.4469 21.3591 20.7181 21.615 21.0542 21.6188H23.0899C23.426 21.6188 23.6972 21.3591 23.6972 21.043C23.6972 20.727 23.4222 20.4711 23.0899 20.4711H21.7417V16.7986C21.7417 16.4524 21.4514 16.174 21.0924 16.174ZM18.3042 19.5078H17.0361L17.6701 17.7355L18.3042 19.5078Z" fill="white"/>
</svg>
