<svg width="15" height="15" viewBox="0 0 15 15" fill="none" xmlns="http://www.w3.org/2000/svg">
<path d="M14.335 6.37673C14.5002 6.25368 14.6227 6.08201 14.6854 5.88581C14.7481 5.6896 14.7478 5.47869 14.6846 5.28265C14.6214 5.08661 14.4984 4.91528 14.3329 4.79267C14.1674 4.67006 13.9676 4.60232 13.7617 4.59896L9.76167 4.44785C9.742 4.44649 9.72314 4.43947 9.70737 4.42764C9.6916 4.41582 9.67959 4.39968 9.67278 4.38118L8.29056 0.647845C8.22111 0.457907 8.09497 0.293897 7.92922 0.178021C7.76348 0.0621451 7.56612 0 7.36389 0C7.16165 0 6.9643 0.0621451 6.79855 0.178021C6.6328 0.293897 6.50667 0.457907 6.43722 0.647845L5.05944 4.39451C5.05263 4.41301 5.04062 4.42915 5.02485 4.44098C5.00908 4.45281 4.99022 4.45982 4.97055 4.46118L0.970554 4.61229C0.764601 4.61565 0.564865 4.68339 0.399352 4.806C0.233838 4.92861 0.110848 5.09995 0.0476254 5.29598C-0.0155969 5.49202 -0.0158806 5.70293 0.0468142 5.89914C0.109509 6.09535 0.232038 6.26701 0.397221 6.39007L3.535 8.85674C3.5507 8.86909 3.56244 8.88578 3.56876 8.90474C3.57508 8.9237 3.5757 8.94409 3.57055 8.9634L2.49055 12.7901C2.43459 12.9849 2.44001 13.1923 2.50608 13.384C2.57215 13.5757 2.69567 13.7423 2.85982 13.8613C3.02397 13.9803 3.2208 14.0458 3.42351 14.049C3.62623 14.0521 3.825 13.9928 3.99278 13.879L7.30833 11.6567C7.32466 11.6455 7.34404 11.6394 7.36389 11.6394C7.38374 11.6394 7.40311 11.6455 7.41944 11.6567L10.735 13.879C10.9005 13.9967 11.0986 14.0599 11.3017 14.0599C11.5048 14.0599 11.7028 13.9967 11.8683 13.879C12.0325 13.7611 12.1562 13.5952 12.2222 13.4042C12.2883 13.2132 12.2935 13.0064 12.2372 12.8123L11.1483 8.97229C11.1426 8.95301 11.1429 8.93242 11.1492 8.91333C11.1556 8.89425 11.1677 8.87758 11.1839 8.86562L14.335 6.37673Z" fill="#CAB357"/>
</svg>
