<svg width="126" height="40" viewBox="0 0 126 40" fill="none" xmlns="http://www.w3.org/2000/svg">
<g style="mix-blend-mode:multiply">
<path d="M3.20996 36.2505V35.9763C5.05538 35.9763 5.53004 34.2469 5.53004 32.4546V7.15209C5.53004 5.35977 5.05538 3.63039 3.20996 3.63039V3.3562C5.90501 3.3562 8.2115 3.3562 10.9994 3.3562V3.63039C9.15403 3.63039 8.67937 5.3609 8.67937 7.15209V32.4546C8.67937 34.2458 9.15403 35.9763 10.9994 35.9763V36.2505H3.20996Z" fill="white"/>
<path d="M33.3383 35.9763V36.2505H25.5489V35.9763C27.3943 35.9763 27.8689 34.2458 27.8689 32.4546V18.5858C27.8689 15.681 27.3705 13.2819 23.2673 13.2819C20.3638 13.2819 17.3527 15.7642 15.8403 19.4904C15.8381 23.4301 15.8313 26.245 15.8381 32.4557C15.8381 34.2469 16.3127 35.9774 18.1581 35.9774V36.2516C15.181 36.237 13.4307 36.2516 10.3687 36.2516V35.9774C12.2141 35.9774 12.6887 34.2481 12.6887 32.4557V16.3373C12.6887 14.5461 12.2141 12.8156 10.3687 12.8156V12.5414H15.8381C15.8403 14.7405 15.8415 16.5058 15.8403 18.0532C17.7039 14.5045 21.0186 11.9941 24.6822 11.9941C30.5243 11.9941 31.0194 15.3507 31.0194 18.5858V32.4546C31.0194 34.2458 31.4941 35.9763 33.3395 35.9763H33.3383Z" fill="white"/>
<path d="M54.9577 28.8396C54.9577 18.1071 30.7656 23.8402 30.7656 12.5548C30.7656 7.87233 35.4013 3.19995 43.5975 3.19995C48.6284 3.19995 53.127 5.54401 56.12 9.22865L53.8702 10.6917C50.8522 6.06204 46.0104 3.76518 40.9794 4.18432C36.9397 4.52031 33.0438 6.85088 33.0438 10.3883C33.0438 21.0456 57.2359 15.1742 57.2359 26.6731C57.2359 32.9479 51.6203 36.7955 43.9883 36.7955C38.9573 36.7955 33.7348 34.4514 30.7407 30.7668L32.9906 29.3037C36.0085 33.9334 41.5753 36.2302 46.6052 35.8111C50.6449 35.4751 54.9566 33.1457 54.9566 28.8374L54.9577 28.8396Z" fill="white"/>
<path d="M67.7293 30.8004C66.311 33.6085 63.5706 36.7987 58.671 36.7987C52.216 36.7987 47.1975 31.2465 47.1975 24.3964C47.1975 17.5462 52.1345 11.9951 58.1998 11.9951C62.1568 11.9951 64.8054 13.8785 66.482 15.9809L64.4089 17.1091C63.2908 15.1336 61.2517 12.7761 58.1998 12.7761C53.7896 12.7761 50.348 17.9789 50.348 24.3964C50.348 30.8139 53.8349 36.0178 58.6722 36.0178C62.8445 36.0178 65.4602 34.0479 67.2614 30.5239L67.7304 30.8004H67.7293Z" fill="white"/>
<path d="M108.818 35.9763V36.2505H101.028V35.9763C102.874 35.9763 103.348 34.2458 103.348 32.4546V18.5858C103.348 15.681 102.85 13.2819 98.7468 13.2819C95.8422 13.2819 92.8311 15.7642 91.3187 19.4904C91.2451 19.6545 91.1726 19.8174 91.0989 19.9792C91.0729 20.0354 91.0479 20.0916 91.023 20.1478C90.9766 20.2511 90.9301 20.3545 90.8837 20.4568C90.852 20.5265 90.8191 20.5973 90.7874 20.6669C90.7477 20.7523 90.7081 20.8388 90.6696 20.9231C90.6322 21.0018 90.5959 21.0804 90.5597 21.1591C90.5268 21.2299 90.494 21.3007 90.4611 21.3715C90.4203 21.4603 90.3784 21.549 90.3376 21.6378C90.315 21.685 90.2935 21.7311 90.2719 21.7783C85.6408 31.6141 81.3825 36.8 76.0173 36.8C68.656 36.8 65.2087 31.2478 65.2087 24.3988C65.2087 17.5498 70.3179 11.9964 76.4172 11.9964C80.8183 11.9964 83.2811 14.8382 83.2811 16.9744C83.2811 18.9252 81.8367 20.1871 79.4374 20.1995H68.8599C68.5371 21.5018 68.3592 22.9177 68.3592 24.3988C68.3592 30.8174 71.1811 36.019 76.0184 36.019C80.4207 36.019 84.2112 32.0546 88.1682 24.6044V16.3373C88.1682 14.5461 87.6947 12.8156 85.8493 12.8156V12.5414H91.3187C91.3198 14.7405 91.321 16.5058 91.3198 18.0532C93.1834 14.5045 96.4981 11.9941 100.162 11.9941C106.004 11.9941 106.499 15.3507 106.499 18.5858V32.4546C106.499 34.2458 106.974 35.9763 108.819 35.9763H108.818ZM69.074 19.4162H77.5761C79.6594 19.4162 80.8738 18.3633 80.8647 16.7047C80.8523 14.7135 78.9117 12.7751 76.4183 12.7751C73.2282 12.7751 70.2669 15.4889 69.0752 19.4162H69.074ZM93.6365 35.9763V36.2505H85.8482V35.9763C87.6936 35.9763 88.1671 34.2458 88.1671 32.4546V28.0576C89.1833 26.3158 90.2255 24.2987 91.3176 21.9637C91.3153 24.8246 91.3119 27.6036 91.3176 32.4546C91.3176 34.2458 91.7911 35.9763 93.6365 35.9763Z" fill="white"/>
<path d="M123.187 32.2547C121.714 34.6055 119.441 36.7989 116.676 36.7989C111.496 36.7989 110.969 33.729 110.969 26.88C110.969 21.0356 110.969 15.3597 110.969 13.3235H107.725V12.5426H108.947C113.347 12.5426 113.842 8.18932 113.842 6.92065C113.905 6.92065 114.055 6.92065 114.118 6.92065C114.12 8.72533 114.121 10.6098 114.121 12.5426H119.631V13.3235H114.121C114.121 17.7274 114.116 22.3627 114.116 26.88H114.117C114.117 33.2975 114.581 36.018 117.305 36.018C118.932 36.018 121.012 34.5796 122.707 31.9659L123.187 32.2558V32.2547Z" fill="white"/>
</g>
</svg>
