<svg width="25" height="25" viewBox="0 0 25 25" fill="none" xmlns="http://www.w3.org/2000/svg">
<path d="M12.5 4.16675C13.605 4.16675 14.6648 4.60573 15.4462 5.38714C16.2276 6.16854 16.6666 7.22835 16.6666 8.33342C16.6666 9.43848 16.2276 10.4983 15.4462 11.2797C14.6648 12.0611 13.605 12.5001 12.5 12.5001C11.3949 12.5001 10.3351 12.0611 9.55368 11.2797C8.77228 10.4983 8.33329 9.43848 8.33329 8.33342C8.33329 7.22835 8.77228 6.16854 9.55368 5.38714C10.3351 4.60573 11.3949 4.16675 12.5 4.16675ZM12.5 14.5834C17.1041 14.5834 20.8333 16.448 20.8333 18.7501V20.8334H4.16663V18.7501C4.16663 16.448 7.89579 14.5834 12.5 14.5834Z" fill="white"/>
</svg>
