<svg width="25" height="25" viewBox="0 0 25 25" fill="none" xmlns="http://www.w3.org/2000/svg">
<path d="M12.5 2.08325C10.5662 2.08325 8.7115 2.85148 7.34405 4.21893C5.9766 5.58638 5.20837 7.44105 5.20837 9.37492V13.0499C5.20852 13.2115 5.17108 13.3709 5.099 13.5155L3.31046 17.0916C3.22309 17.2663 3.18183 17.4604 3.19061 17.6556C3.19939 17.8507 3.25791 18.0404 3.36061 18.2065C3.46331 18.3727 3.60678 18.5098 3.7774 18.6049C3.94802 18.7 4.14012 18.7499 4.33546 18.7499H20.6646C20.86 18.7499 21.0521 18.7 21.2227 18.6049C21.3933 18.5098 21.5368 18.3727 21.6395 18.2065C21.7422 18.0404 21.8007 17.8507 21.8095 17.6556C21.8182 17.4604 21.777 17.2663 21.6896 17.0916L19.9021 13.5155C19.8297 13.371 19.7919 13.2116 19.7917 13.0499V9.37492C19.7917 7.44105 19.0235 5.58638 17.656 4.21893C16.2886 2.85148 14.4339 2.08325 12.5 2.08325ZM12.5 21.8749C11.8535 21.8753 11.2228 21.6751 10.6948 21.3019C10.1669 20.9288 9.76763 20.4011 9.55212 19.7916H15.448C15.2325 20.4011 14.8332 20.9288 14.3052 21.3019C13.7773 21.6751 13.1466 21.8753 12.5 21.8749Z" fill="black"/>
</svg>
