<svg width="125" height="40" viewBox="0 0 125 40" fill="none" xmlns="http://www.w3.org/2000/svg">
<path d="M3.18471 36.2505V35.9763C5.01548 35.9763 5.48637 34.2469 5.48637 32.4546V7.15209C5.48637 5.35977 5.01548 3.63039 3.18471 3.63039V3.3562C5.85837 3.3562 8.14655 3.3562 10.9124 3.3562V3.63039C9.0816 3.63039 8.61071 5.3609 8.61071 7.15209V32.4546C8.61071 34.2458 9.0816 35.9763 10.9124 35.9763V36.2505H3.18471Z" fill="#231F20"/>
<path d="M33.0738 35.9763V36.2505H25.3461V35.9763C27.1769 35.9763 27.6478 34.2458 27.6478 32.4546V18.5858C27.6478 15.681 27.1533 13.2819 23.0827 13.2819C20.2022 13.2819 17.215 15.7642 15.7146 19.4904C15.7124 23.4301 15.7056 26.245 15.7124 32.4557C15.7124 34.2469 16.1833 35.9774 18.014 35.9774V36.2516C15.0605 36.237 13.3242 36.2516 10.2864 36.2516V35.9774C12.1171 35.9774 12.588 34.2481 12.588 32.4557V16.3373C12.588 14.5461 12.1171 12.8156 10.2864 12.8156V12.5414H15.7124C15.7146 14.7405 15.7157 16.5058 15.7146 18.0532C17.5634 14.5045 20.8518 11.9941 24.4864 11.9941C30.2821 11.9941 30.7732 15.3507 30.7732 18.5858V32.4546C30.7732 34.2458 31.2441 35.9763 33.0749 35.9763H33.0738Z" fill="#231F20"/>
<path d="M54.5216 28.8396C54.5216 18.1071 30.5215 23.8402 30.5215 12.5548C30.5215 7.87233 35.1204 3.19995 43.2515 3.19995C48.2426 3.19995 52.7054 5.54401 55.6746 9.22865L53.4427 10.6917C50.4487 6.06204 45.6453 3.76518 40.6542 4.18432C36.6466 4.52031 32.7816 6.85088 32.7816 10.3883C32.7816 21.0456 56.7816 15.1742 56.7816 26.6731C56.7816 32.9479 51.2107 36.7955 43.6392 36.7955C38.6482 36.7955 33.4672 34.4514 30.4968 30.7668L32.7288 29.3037C35.7227 33.9334 41.2454 36.2302 46.2353 35.8111C50.243 35.4751 54.5204 33.1457 54.5204 28.8374L54.5216 28.8396Z" fill="#231F20"/>
<path d="M67.192 30.8004C65.7849 33.6085 63.0663 36.7987 58.2056 36.7987C51.8018 36.7987 46.8231 31.2465 46.8231 24.3964C46.8231 17.5462 51.7209 11.9951 57.738 11.9951C61.6637 11.9951 64.2913 13.8785 65.9546 15.9809L63.8979 17.1091C62.7887 15.1336 60.7657 12.7761 57.738 12.7761C53.3628 12.7761 49.9486 17.9789 49.9486 24.3964C49.9486 30.8139 53.4078 36.0178 58.2067 36.0178C62.3459 36.0178 64.9409 34.0479 66.7278 30.5239L67.1931 30.8004H67.192Z" fill="#231F20"/>
<path d="M107.954 35.9763V36.2505H100.227V35.9763C102.057 35.9763 102.528 34.2458 102.528 32.4546V18.5858C102.528 15.681 102.034 13.2819 97.9633 13.2819C95.0817 13.2819 92.0945 15.7642 90.5941 19.4904C90.5211 19.6545 90.4491 19.8174 90.3761 19.9792C90.3502 20.0354 90.3255 20.0916 90.3008 20.1478C90.2547 20.2511 90.2086 20.3545 90.1625 20.4568C90.1311 20.5265 90.0985 20.5973 90.067 20.6669C90.0277 20.7523 89.9883 20.8388 89.9501 20.9231C89.913 21.0018 89.8771 21.0804 89.8411 21.1591C89.8085 21.2299 89.7759 21.3007 89.7433 21.3715C89.7029 21.4603 89.6613 21.549 89.6208 21.6378C89.5984 21.685 89.577 21.7311 89.5557 21.7783C84.9613 31.6141 80.7367 36.8 75.4141 36.8C68.1113 36.8 64.6914 31.2478 64.6914 24.3988C64.6914 17.5498 69.76 11.9964 75.8108 11.9964C80.177 11.9964 82.6203 14.8382 82.6203 16.9744C82.6203 18.9252 81.1874 20.1871 78.8071 20.1995H68.3136C67.9933 21.5018 67.8168 22.9177 67.8168 24.3988C67.8168 30.8174 70.6164 36.019 75.4152 36.019C79.7826 36.019 83.543 32.0546 87.4687 24.6044V16.3373C87.4687 14.5461 86.9989 12.8156 85.1681 12.8156V12.5414H90.5941C90.5952 14.7405 90.5964 16.5058 90.5952 18.0532C92.444 14.5045 95.7324 11.9941 99.367 11.9941C105.163 11.9941 105.654 15.3507 105.654 18.5858V32.4546C105.654 34.2458 106.125 35.9763 107.955 35.9763H107.954ZM68.526 19.4162H76.9606C79.0273 19.4162 80.2321 18.3633 80.2231 16.7047C80.2108 14.7135 78.2856 12.7751 75.812 12.7751C72.6472 12.7751 69.7094 15.4889 68.5271 19.4162H68.526ZM92.8935 35.9763V36.2505H85.167V35.9763C86.9977 35.9763 87.4675 34.2458 87.4675 32.4546V28.0576C88.4756 26.3158 89.5096 24.2987 90.593 21.9637C90.5907 24.8246 90.5874 27.6036 90.593 32.4546C90.593 34.2458 91.0628 35.9763 92.8935 35.9763Z" fill="#231F20"/>
<path d="M122.209 32.2547C120.748 34.6055 118.493 36.7989 115.751 36.7989C110.611 36.7989 110.089 33.729 110.089 26.88C110.089 21.0356 110.089 15.3597 110.089 13.3235H106.87V12.5426H108.082C112.448 12.5426 112.939 8.18932 112.939 6.92065C113.002 6.92065 113.15 6.92065 113.213 6.92065C113.214 8.72533 113.215 10.6098 113.215 12.5426H118.682V13.3235H113.215C113.215 17.7274 113.211 22.3627 113.211 26.88H113.212C113.212 33.2975 113.671 36.018 116.374 36.018C117.988 36.018 120.052 34.5796 121.733 31.9659L122.209 32.2558V32.2547Z" fill="#231F20"/>
</svg>
