<svg width="94" height="30" viewBox="0 0 94 30" fill="none" xmlns="http://www.w3.org/2000/svg">
<rect width="94" height="30" fill="#8D97A3"/>
<path d="M2.39453 27.1878V26.9822C3.77127 26.9822 4.12538 25.6851 4.12538 24.3409V5.364C4.12538 4.01977 3.77127 2.72273 2.39453 2.72273V2.51709C4.40513 2.51709 6.12584 2.51709 8.20574 2.51709V2.72273C6.829 2.72273 6.47488 4.02061 6.47488 5.364V24.3409C6.47488 25.6843 6.829 26.9822 8.20574 26.9822V27.1878H2.39453Z" fill="white"/>
<path d="M24.8705 26.9822V27.1879H19.0593V26.9822C20.436 26.9822 20.7901 25.6844 20.7901 24.341V13.9394C20.7901 11.7608 20.4183 9.96143 17.3572 9.96143C15.1911 9.96143 12.9447 11.8231 11.8164 14.6178C11.8147 17.5726 11.8097 19.6838 11.8147 24.3418C11.8147 25.6852 12.1688 26.9831 13.5456 26.9831V27.1887C11.3245 27.1778 10.0188 27.1887 7.73438 27.1887V26.9831C9.11111 26.9831 9.46523 25.686 9.46523 24.3418V12.253C9.46523 10.9096 9.11111 9.61168 7.73438 9.61168V9.40604H11.8147C11.8164 11.0554 11.8173 12.3794 11.8164 13.5399C13.2067 10.8784 15.6796 8.99561 18.4128 8.99561C22.7712 8.99561 23.1405 11.513 23.1405 13.9394V24.341C23.1405 25.6844 23.4946 26.9822 24.8713 26.9822H24.8705Z" fill="white"/>
<path d="M41.0002 21.6296C41.0002 13.5802 22.9522 17.8801 22.9522 9.41606C22.9522 5.90419 26.4105 2.3999 32.5251 2.3999C36.2784 2.3999 39.6345 4.15794 41.8673 6.92142L40.1889 8.01872C37.9374 4.54647 34.3253 2.82382 30.572 3.13818C27.5582 3.39017 24.6518 5.1381 24.6518 7.79117C24.6518 15.7841 42.6998 11.3806 42.6998 20.0048C42.6998 24.7108 38.5104 27.5965 32.8167 27.5965C29.0634 27.5965 25.1673 25.8385 22.9336 23.075L24.612 21.9777C26.8635 25.45 31.0165 27.1726 34.769 26.8583C37.7828 26.6063 40.9994 24.8592 40.9994 21.628L41.0002 21.6296Z" fill="white"/>
<path d="M50.5283 23.1005C49.4702 25.2066 47.4258 27.5993 43.7705 27.5993C38.9549 27.5993 35.2109 23.4351 35.2109 18.2975C35.2109 13.1599 38.8941 8.99658 43.419 8.99658C46.3711 8.99658 48.347 10.4091 49.5978 11.9859L48.0512 12.8321C47.217 11.3505 45.6958 9.58232 43.419 9.58232C40.1288 9.58232 37.5613 13.4844 37.5613 18.2975C37.5613 23.1106 40.1626 27.0136 43.7714 27.0136C46.8841 27.0136 48.8355 25.5362 50.1793 22.8932L50.5292 23.1005H50.5283Z" fill="white"/>
<path d="M81.1822 26.9822V27.1879H75.371V26.9822C76.7477 26.9822 77.1019 25.6844 77.1019 24.341V13.9394C77.1019 11.7608 76.73 9.96143 73.6689 9.96143C71.5019 9.96143 69.2556 11.8231 68.1273 14.6178C68.0724 14.7408 68.0183 14.863 67.9633 14.9844C67.9439 15.0265 67.9253 15.0687 67.9067 15.1108C67.8721 15.1884 67.8374 15.2659 67.8028 15.3426C67.7791 15.3948 67.7546 15.4479 67.7309 15.5002C67.7013 15.5642 67.6718 15.6291 67.643 15.6923C67.6151 15.7513 67.5881 15.8103 67.561 15.8693C67.5365 15.9224 67.512 15.9755 67.4875 16.0286C67.4571 16.0952 67.4258 16.1618 67.3954 16.2284C67.3785 16.2638 67.3624 16.2983 67.3464 16.3337C63.8914 23.7106 60.7145 27.6 56.7119 27.6C51.2202 27.6 48.6484 23.4358 48.6484 18.2991C48.6484 13.1623 52.46 8.99729 57.0103 8.99729C60.2937 8.99729 62.131 11.1287 62.131 12.7308C62.131 14.1939 61.0534 15.1403 59.2634 15.1496H51.3723C51.1315 16.1264 50.9988 17.1883 50.9988 18.2991C50.9988 23.113 53.104 27.0143 56.7128 27.0143C59.997 27.0143 62.8249 24.0409 65.777 18.4533V12.253C65.777 10.9096 65.4237 9.61168 64.0469 9.61168V9.40604H68.1273C68.1281 11.0554 68.129 12.3794 68.1281 13.5399C69.5184 10.8784 71.9913 8.99561 74.7245 8.99561C79.0829 8.99561 79.4522 11.513 79.4522 13.9394V24.341C79.4522 25.6844 79.8063 26.9822 81.1831 26.9822H81.1822ZM51.5321 14.5622H57.8749C59.4291 14.5622 60.3351 13.7725 60.3283 12.5285C60.319 11.0351 58.8713 9.58134 57.0111 9.58134C54.6312 9.58134 52.422 11.6167 51.5329 14.5622H51.5321ZM69.8565 26.9822V27.1879H64.0461V26.9822C65.4228 26.9822 65.7761 25.6844 65.7761 24.341V21.0432C66.5342 19.7369 67.3117 18.2241 68.1264 16.4728C68.1248 18.6185 68.1222 20.7027 68.1264 24.341C68.1264 25.6844 68.4797 26.9822 69.8565 26.9822Z" fill="white"/>
<path d="M91.9006 24.1909C90.8019 25.954 89.1057 27.5991 87.0436 27.5991C83.1787 27.5991 82.7857 25.2967 82.7857 20.1599C82.7857 15.7766 82.7857 11.5197 82.7857 9.9926H80.3652V9.40686H81.2771C84.5597 9.40686 84.929 6.14193 84.929 5.19043C84.9763 5.19043 85.0879 5.19043 85.1352 5.19043C85.1361 6.54394 85.1369 7.95728 85.1369 9.40686H89.2477V9.9926H85.1369C85.1369 13.2955 85.1335 16.7719 85.1335 20.1599H85.1344C85.1344 24.973 85.48 27.0134 87.5126 27.0134C88.7262 27.0134 90.2779 25.9346 91.5422 23.9743L91.9006 24.1918V24.1909Z" fill="white"/>
</svg>
